<svg width="36" height="63" viewBox="0 0 36 63" fill="none" xmlns="http://www.w3.org/2000/svg">
<path d="M35.7641 50.9259H24.4428C24.3126 50.9259 24.2069 51.0304 24.2069 51.1591V61.4179C24.2069 61.5468 24.3126 61.651 24.4428 61.651H35.7641C35.8946 61.651 36 61.5468 36 61.4179V51.1591C36 51.0304 35.8946 50.9259 35.7641 50.9259ZM29.7985 56.4533L27.4399 58.7849C27.3939 58.8303 27.3335 58.8532 27.2731 58.8532C27.2127 58.8532 27.1523 58.8303 27.1063 58.7849C27.0141 58.6937 27.0141 58.5463 27.1063 58.4552L29.2982 56.2885L27.1063 54.1218C27.0141 54.0306 27.0141 53.8832 27.1063 53.7921C27.1986 53.7009 27.3476 53.7009 27.4399 53.7921L29.7985 56.1236C29.8907 56.2148 29.8907 56.3621 29.7985 56.4533ZM32.9338 58.8532H30.5752C30.4447 58.8532 30.3393 58.7489 30.3393 58.62C30.3393 58.4911 30.4447 58.3869 30.5752 58.3869H32.9338C33.0642 58.3869 33.1697 58.4911 33.1697 58.62C33.1697 58.7489 33.0642 58.8532 32.9338 58.8532Z" fill="#0EA5E9"/>
<path d="M15.2956 40.95V29.61H22.4881L24.218 27.9V13.05L22.4881 11.34H15.2956V0H27.2225L35.6897 8.37V32.58L27.2225 40.95H15.2956ZM0 63V44.73H11.4717V63H0ZM0 40.95V0H11.4717V40.95H0Z" fill="#0EA5E9"/>
</svg>
